<svg xmlns="http://www.w3.org/2000/svg" xmlns:xlink="http://www.w3.org/1999/xlink" width="762.086" height="415.171" viewBox="0 0 762.086 415.171">
  <defs>
    <clipPath id="clip-path">
      <path id="Path_24725" data-name="Path 24725" d="M879.36,512.567c-30.09-49.334-42.781-175.66-236.374-178.612q-3.52-.1-6.956-.07c-200.243.008-373.681,107.808-384.994,107.808s-47.236-37.419-65.2-23.948-2.994,56.168-7.484,74.484-50.89,20.782-52.387,49.485,81.655,133.614,81.655,133.614h.016c15.394,44.252,53.483,66.065,109.249,61.649,88.652-7.02,190.6-16.632,300.639,0S809.891,768.831,850.3,667.671C850.3,667.671,909.806,562.486,879.36,512.567Z" transform="translate(-125.947 -333.88)" fill="none"/>
    </clipPath>
    <clipPath id="clip-path-2">
      <path id="Path_24758" data-name="Path 24758" d="M527.928,393.072C397.855,412.338,333.493,521.9,325.225,599.2,315.131,693.581,358.938,743.448,440.7,736.973c88.651-7.02,190.6-16.632,300.639,0S933.7,768.828,974.118,667.667,961.4,373.863,812.515,340C702.825,315.046,663.364,373.011,527.928,393.072Z" transform="translate(-323.794 -333.867)" fill="none"/>
    </clipPath>
  </defs>
  <g id="Group_2834" data-name="Group 2834" transform="translate(-219 -310)">
    <g id="Group_2826" data-name="Group 2826" transform="translate(93.053 -23.853)">
      <g id="Group_2794" data-name="Group 2794" transform="translate(125.947 333.853)">
        <path id="Path_24698" data-name="Path 24698" d="M527.928,393.058c-130.073,19.266-194.435,128.828-202.7,206.126C315.131,693.567,358.938,743.434,440.7,736.96c88.651-7.02,190.6-16.632,300.639,0S933.7,768.815,974.118,667.654s-12.719-293.8-161.6-327.67C702.825,315.033,663.364,373,527.928,393.058Z" transform="translate(-249.76 -333.853)" fill="#b9e0f7"/>
        <g id="Group_2793" data-name="Group 2793" transform="translate(0 0.01)">
          <g id="Group_2792" data-name="Group 2792" clip-path="url(#clip-path)">
            <g id="Group_2791" data-name="Group 2791" transform="translate(10.752 98.073)">
              <g id="Group_2782" data-name="Group 2782" transform="translate(511.801 82.548)">
                <g id="Group_2774" data-name="Group 2774" transform="translate(0 18.248)">
                  <path id="Path_24699" data-name="Path 24699" d="M1603.575,1091.678s-.75-68.856-24.027-88.714-86.8-109.65-37.839-133.379,65.9,58.41,98.364,85.556,8.153,132.852,8.153,132.852Z" transform="translate(-1523.181 -865.335)" fill="#80c3e5"/>
                  <g id="Group_2767" data-name="Group 2767" transform="translate(17.482 3.841)">
                    <path id="Path_24700" data-name="Path 24700" d="M1663.511,1111.092l-2.237-.176c.064-.818,6.216-82.284-9.458-118.4-7.251-16.707-21.3-32.566-36.184-49.355-17.935-20.24-36.48-41.168-46.5-66.748l2.091-.819c9.875,25.209,28.286,45.985,46.092,66.076,15,16.926,29.17,32.915,36.563,49.951C1669.772,1028.25,1663.576,1110.267,1663.511,1111.092Z" transform="translate(-1569.13 -875.599)" fill="#5aa2c8"/>
                  </g>
                  <g id="Group_2768" data-name="Group 2768" transform="translate(52.2 4.997)">
                    <path id="Path_24701" data-name="Path 24701" d="M1667.317,939.062c-2.14-5.483-2.337-17.354-2.547-29.924-.2-12.083-.43-25.779-2.857-29.13l1.82-1.318c2.842,3.926,3.057,16.79,3.283,30.411.2,11.818.4,24.037,2.394,29.146Z" transform="translate(-1661.912 -878.69)" fill="#5aa2c8"/>
                  </g>
                  <g id="Group_2769" data-name="Group 2769" transform="translate(0 42.37)">
                    <path id="Path_24702" data-name="Path 24702" d="M1591.1,1012.929c-1.809-2.065-12.866-6.343-24.572-10.873-23.77-9.2-42.112-16.714-44.117-22.792l2.131-.7c1.833,5.551,25.508,14.712,42.8,21.4,14.431,5.584,23.384,9.128,25.449,11.489Z" transform="translate(-1522.412 -978.563)" fill="#5aa2c8"/>
                  </g>
                  <g id="Group_2770" data-name="Group 2770" transform="translate(83.877 44.689)">
                    <path id="Path_24703" data-name="Path 24703" d="M1756,1047.706c-1.469-2.651-2.633-12.673-4.374-28.865-1.5-13.982-3.21-29.83-5.06-32.926l1.925-1.153c2.1,3.521,3.69,18.249,5.367,33.84,1.35,12.572,2.749,25.57,4.107,28.016Z" transform="translate(-1746.563 -984.762)" fill="#5aa2c8"/>
                  </g>
                  <g id="Group_2771" data-name="Group 2771" transform="translate(28.157 104.441)">
                    <path id="Path_24704" data-name="Path 24704" d="M1673.777,1172.721c-3.938-5.92-22.656-10.165-39.17-13.91-16.929-3.841-32.921-7.468-36.949-13.059l1.82-1.311c3.534,4.9,19.849,8.6,35.627,12.18,18.567,4.212,36.107,8.189,40.54,14.855Z" transform="translate(-1597.658 -1144.441)" fill="#5aa2c8"/>
                  </g>
                  <g id="Group_2772" data-name="Group 2772" transform="translate(68.888 157.884)">
                    <path id="Path_24705" data-name="Path 24705" d="M1747.3,1319.433c-1.938-13.131-18.569-20.241-30.711-25.433-4.26-1.82-7.937-3.394-10.086-4.9l1.289-1.837c1.956,1.37,5.534,2.9,9.678,4.67,11.919,5.1,29.929,12.8,32.053,27.17Z" transform="translate(-1706.508 -1287.264)" fill="#5aa2c8"/>
                  </g>
                  <g id="Group_2773" data-name="Group 2773" transform="translate(109.676 110.806)">
                    <path id="Path_24706" data-name="Path 24706" d="M1817.751,1218.587l-2.241-.106c.224-4.869,4.44-15.429,8.9-26.609,4.771-11.947,10.178-25.49,9.643-30.167l2.232-.255c.6,5.238-4.449,17.876-9.79,31.255C1822.3,1203.221,1817.959,1214.094,1817.751,1218.587Z" transform="translate(-1815.51 -1161.451)" fill="#5aa2c8"/>
                  </g>
                </g>
                <g id="Group_2781" data-name="Group 2781" transform="translate(101.199)">
                  <path id="Path_24707" data-name="Path 24707" d="M1792.854,1057.474c25.685-38.262-8.027-162.142,51.37-214.179s102.855-23.975,65.817,48.661-48.159,157.227-69.028,165.518S1792.854,1057.474,1792.854,1057.474Z" transform="translate(-1792.854 -816.569)" fill="#80c3e5"/>
                  <g id="Group_2775" data-name="Group 2775" transform="translate(19.763 0.61)">
                    <path id="Path_24708" data-name="Path 24708" d="M1847.882,1075.263l-2.214-.359c.1-.6,9.895-60.646,32.132-140.015,14.591-52.088,33.489-76.937,45.993-93.378,6.966-9.16,12-15.778,13.787-23.311l2.184.517c-1.9,8-7.049,14.773-14.183,24.152-12.4,16.306-31.143,40.948-45.618,92.624C1857.76,1014.742,1847.979,1074.667,1847.882,1075.263Z" transform="translate(-1845.668 -818.2)" fill="#5aa2c8"/>
                  </g>
                  <g id="Group_2776" data-name="Group 2776" transform="translate(62.621 40.731)">
                    <path id="Path_24709" data-name="Path 24709" d="M1961.986,971.328l-1.785-1.359c6.878-9.025,21.507-16.3,35.653-23.336,14.425-7.174,28.05-13.949,30.317-21.215l2.144.671c-2.554,8.178-16.6,15.162-31.461,22.555C1982.938,955.563,1968.549,962.72,1961.986,971.328Z" transform="translate(-1960.201 -925.418)" fill="#5aa2c8"/>
                  </g>
                  <g id="Group_2777" data-name="Group 2777" transform="translate(51.37 21.657)">
                    <path id="Path_24710" data-name="Path 24710" d="M1932.824,970.688l-2.166-.6c1.467-5.328.87-21.046.239-37.686-1.179-31.086-1.62-53.438,3.51-57.962l1.486,1.684c-4.729,4.168-3.633,33.015-2.754,56.192C1933.806,949.869,1934.381,965.024,1932.824,970.688Z" transform="translate(-1930.136 -874.444)" fill="#5aa2c8"/>
                  </g>
                  <g id="Group_2778" data-name="Group 2778" transform="translate(38.215 111.285)">
                    <path id="Path_24711" data-name="Path 24711" d="M1897.16,1172.844l-2.18-.544c2.339-9.391,16.435-19.63,31.36-30.47,13.142-9.549,26.732-19.42,30.284-27.863l2.069.873c-3.8,9.018-17.643,19.077-31.033,28.806C1913.718,1153.773,1899.3,1164.247,1897.16,1172.844Z" transform="translate(-1894.98 -1113.967)" fill="#5aa2c8"/>
                  </g>
                  <g id="Group_2779" data-name="Group 2779" transform="translate(15.52 100.972)">
                    <path id="Path_24712" data-name="Path 24712" d="M1855,1173.324l-2.188-.5c2.126-9.435-6.032-38.275-11.989-59.333-4.381-15.48-6.838-24.37-6.455-27.091l2.224.316c-.338,2.383,2.931,13.936,6.391,26.166C1849.343,1135.359,1857.256,1163.33,1855,1173.324Z" transform="translate(-1834.331 -1086.404)" fill="#5aa2c8"/>
                  </g>
                  <g id="Group_2780" data-name="Group 2780" transform="translate(24.95 193.881)">
                    <path id="Path_24713" data-name="Path 24713" d="M1861.737,1371.048l-2.206-.43c1.042-5.348,10.86-10.9,22.228-17.328,10.592-5.99,22.6-12.779,24.484-18.6l2.135.693c-2.157,6.648-14.032,13.364-25.515,19.856C1872.89,1360.883,1862.579,1366.715,1861.737,1371.048Z" transform="translate(-1859.531 -1334.695)" fill="#5aa2c8"/>
                  </g>
                </g>
              </g>
              <g id="Group_2786" data-name="Group 2786">
                <path id="Path_24714" data-name="Path 24714" d="M636.8,797.967s3.128-37.215,4.963-68.166,33.977-62.38,42.34-79.411,3.5-44.609,29.277-54.421c0,0-16.78,24.709-4.779,39.3s-8.831,59.46-13.138,79.076S671.668,785.284,636.8,797.967Z" transform="translate(-456.393 -595.969)" fill="#80c3e5"/>
                <path id="Path_24715" data-name="Path 24715" d="M295.036,1007.818s-10.734-84.687-35.814-122.4-23.644-32.19-63.924-44.374-40.618,18.092-40.618,18.092,24.074-11.068,35.844,7.284,13.62,41.408,36.535,79.326S295.036,1007.818,295.036,1007.818Z" transform="translate(-154.68 -747.53)" fill="#80c3e5"/>
                <path id="Path_24716" data-name="Path 24716" d="M352.623,597.351c5.643,30.814,66.776,52.094,78.38,85.335s-1.233,110.2-1.233,110.2-36.176-37.039-36.257-67-19.388-43.541-32.506-75.178S352.623,597.351,352.623,597.351Z" transform="translate(-278.033 -596.834)" fill="#80c3e5"/>
                <g id="Group_2783" data-name="Group 2783" transform="translate(73.521 0.171)">
                  <path id="Path_24717" data-name="Path 24717" d="M434.23,934.3l-2.245-.044c.018-.857,1.563-86.371-3.73-141.843l-.414-4.368c-5.144-54.114-8.251-86.779-35.3-117.834-27.854-31.972-41.246-72.688-41.378-73.094l2.136-.693c.132.4,13.392,40.7,40.935,72.312,27.53,31.6,30.661,64.532,35.846,119.1l.417,4.365C435.793,847.8,434.245,933.442,434.23,934.3Z" transform="translate(-351.158 -596.426)" fill="#5aa2c8"/>
                </g>
                <g id="Group_2784" data-name="Group 2784" transform="translate(71.965 144.476)">
                  <path id="Path_24718" data-name="Path 24718" d="M429.611,1146.953c-.269-27.488-21.566-61.427-44.114-97.358-13.405-21.365-27.267-43.456-38.5-66.547l2.017-.982c11.18,22.98,25.011,45.02,38.385,66.334,22.719,36.208,44.18,70.41,44.456,98.531Z" transform="translate(-346.998 -982.066)" fill="#5aa2c8"/>
                </g>
                <g id="Group_2785" data-name="Group 2785" transform="translate(153.981 82.625)">
                  <path id="Path_24719" data-name="Path 24719" d="M566.227,994.649c-.91-23.473,11.066-39.668,22.649-55.331,7.363-9.954,14.975-20.248,19.159-32.307,10.676-30.762,21.814-89.643,21.926-90.234l2.206.415c-.112.593-11.278,59.637-22.009,90.556-4.3,12.381-12.013,22.816-19.477,32.906-11.875,16.058-23.09,31.224-22.208,53.909Z" transform="translate(-566.179 -816.776)" fill="#5aa2c8"/>
                </g>
              </g>
              <g id="Group_2790" data-name="Group 2790" transform="translate(341.729 7.214)">
                <g id="Group_2788" data-name="Group 2788" transform="translate(146.907)">
                  <path id="Path_24720" data-name="Path 24720" d="M1494.674,654.946c.378-1.741,4.7-10.841-.211-16.056s-7.54-12.978-10.576-15.088-2.556,7.7-2.556,7.7-10.949-14.11-14.734-15.919-1.807,4.361-1.807,4.361a4.267,4.267,0,0,0-3.5,2.695c-.862,2.47.364,7.838.364,7.838s-.173-1.711-1.065,2.127,6.009,21.013,9.6,24.412,13.223,6.321,14.9,7.706,33.381,61.969,41.823,67.253,20.934,6.678,24.968-10.449S1492.781,663.663,1494.674,654.946Z" transform="translate(-1460.506 -615.246)" fill="#ebafa4"/>
                  <g id="Group_2787" data-name="Group 2787" transform="translate(19.732 16)">
                    <path id="Path_24721" data-name="Path 24721" d="M1518.932,678.317c-.243-.118-5.906-2.969-5.3-9.012.079-.809.157-1.5.224-2.111.373-3.36.449-4.06-.614-8.689l2.188-.5c1.149,5,1.044,5.94.657,9.438-.067.6-.142,1.285-.223,2.086-.448,4.509,4.014,6.752,4.058,6.775Z" transform="translate(-1513.238 -658.004)" fill="#d28881"/>
                  </g>
                </g>
                <g id="Group_2789" data-name="Group 2789" transform="translate(0 11.508)">
                  <path id="Path_24722" data-name="Path 24722" d="M1258.556,737.454c0,3.623,9.687,4.272,10.176,8.775s-8.792,8.546-8.369,12.449,7.993,3.689,7.208,10.456-51.275,8.9-87.656,9.505-110.224-5.359-110.542-11.7,9.237-12.239,8.1-17.154-9.826-9.386-8.845-14.352,11.364-10.04,10.6-14.263-11.713-7.181-11.3-11.792,11.77-11.9,9-15.544-8.963-9.355-7.585-13.452,16.8-7.961,8.559-16.3-13.04-16.406-1.862-17.167c54.27-3.694,189.114,4.637,189.366,9.765s-7.833,11.792-4.376,15.669,8.886,6.326,9.44,11.429-5.385,6.355-7.461,9.617,9.242,9.033,9.242,13.461-9.26,7.5-10.468,8.579,7.649,7.525,8.052,11.148S1258.556,734.682,1258.556,737.454Z" transform="translate(-1067.913 -645.999)" fill="#ffd400"/>
                </g>
                <path id="Path_24723" data-name="Path 24723" d="M1128.274,976.035c1.615-5.839,8.7-4.21,13.471-10.946s11.226-1.965,18.242-5.052,4.21,1.964,2.245,5.052-9.823,5.894-9.823,5.894,42.939-1.965,46.587,1.684-6.174,3.71-8.7,5.082-5.613,4.46-10.384,5.021-9.019,4.771-15.876,4.771-20.047-2.245-22.011-2.245-9.542,3.277-9.542,3.277A11.47,11.47,0,0,1,1128.274,976.035Z" transform="translate(-1105.385 -830.415)" fill="#ebafa4"/>
                <path id="Path_24724" data-name="Path 24724" d="M1471.735,1024.448c9.012,1.066,17.415,4.444,26.272,6.208,5.143,1.025,10.108.768,15.3.794.786,0,1.67,0,2.592.03-1.445-6.806-5.917-13.3-11.856-15.31-13.433-4.542-64.565-44.345-69.336-51.081s-11.226-1.965-18.242-5.052-4.21,1.964-2.245,5.052,9.823,5.894,9.823,5.894-42.939-1.965-46.587,1.684,6.174,3.71,8.7,5.082,5.613,4.46,10.384,5.021,9.02,4.771,15.876,4.771,20.18-2.959,22.011-2.245c4.69,1.829,19.68,22.232,35.326,39.71A2.827,2.827,0,0,1,1471.735,1024.448Z" transform="translate(-1261.12 -830.415)" fill="#ebafa4"/>
              </g>
            </g>
          </g>
        </g>
      </g>
      <g id="humaaans_standing-9" data-name="humaaans/standing-9" transform="translate(169.442 365.014)">
        <g id="A-Human_Standing" data-name="A-Human/Standing">
          <g id="Head_Front_Airy" data-name="Head/Front/Airy">
            <g id="Head" transform="translate(173.636 53.643)">
              <path id="Path_24727" data-name="Path 24727" d="M717.87,609.17c-6.505-7.635-10.907-16.993-10.172-27.478,2.12-30.21,44.174-23.565,52.354-8.317s7.208,53.924-3.364,56.65c-4.216,1.087-13.2-1.575-22.34-7.085l5.738,40.594h-33.88Z" transform="translate(-706.206 -560.482)" fill="#ebafa4"/>
            </g>
            <path id="hair" d="M450.354,466.09c-4.465-.732-16.488-1.236-18.706-1.236-1.417,0-2.952.324-3.791-.977-.687-1.066-.436-2.867-.641-4.1-.238-1.436-.577-2.854-.919-4.268a43.4,43.4,0,0,0-4.506-11.447,35.186,35.186,0,0,0-16.678-15.1c-7.895-3.394-16.828-4.171-25.32-3.483-9.088.736-17.314,3.736-25.894,6.559a54.267,54.267,0,0,1-25.292,2.436c-8.616-1.324-15.126-5.993-22.394-10.425-7.44-4.538-15.942-7.505-24.737-6.823-8.21.637-15.777,4.027-22.566,8.555-6.352,4.237-11.593,9.334-14.552,16.509-3.183,7.717-3.18,16.189,2.054,23.009,7.587,9.886,21.672,12.443,33.391,12.189a63.8,63.8,0,0,0,19.834-3.635c8.534-3,15.909-8.089,23.894-12.218a62.174,62.174,0,0,1,11.679-4.674c3.94-1.113,7.82-1.623,11.386.757,3.773,2.518,7.154,4.991,11.471,6.567a37,37,0,0,0,12.939,2.323c8.584-.066,17.045-2.741,25.383-4.532,6.8-1.46,14.073-2.916,21-1.512,2.892.586,7.117,1.8,8.161,4.8-17.582,3.186-24.487,24.93-19.53,40.892,2.675,8.615,18.755,18.686,25.008,14.157,3.961-2.869,1.556-6.636,0-9.123-2.98-4.762-4-10.879,1.515-14.195,4.757-2.859,9.759,3.931,9.853,3.924,1.307-.1,12.6-6.492,20.388-15.815,7.679.455,8.843-4.608,7.01-8.749S456.524,467.1,450.354,466.09Z" transform="translate(-242.184 -417.126)" fill="#0b1337"/>
          </g>
          <g id="Body_Jacket-2" data-name="Body/Jacket-2" transform="translate(15.528 125.639)">
            <path id="Skin" d="M353.571,1062.229l28.928,5.74q-43.637,81.323-46.8,86.2c-4.75,7.319-.318,20.733,1.319,27.8-10.269,2.391-6.219-13.067-19.216-9.839-11.862,2.946-21.92,10.506-32.981.31-1.36-1.254-2.355-5.172,2.281-7.181,11.551-5.006,28.618-14.381,31.385-18.021Q324.143,1139.792,353.571,1062.229Z" transform="translate(-283.682 -946.472)" fill="#ebafa4"/>
            <path id="Coat-Back" d="M757.661,769.495l12.207-2.094c26.588,25.792,37.438,87.755,55.157,95.956,16.753,7.755,40.5.251,68.729-9.882L902.4,872.79c-25.648,27.748-80.288,51.19-102.436,37.807C764.552,889.2,756.378,812.779,757.661,769.495Z" transform="translate(-580.221 -761.968)" fill="#d0111b"/>
            <path id="Shirt" d="M615.665,913.811H723.674c4.936,0,4.005-7.127,3.292-10.723-8.234-41.5-40.377-86.243-40.377-145.322l-31.155-4.886C629.665,794.326,620.754,845.352,615.665,913.811Z" transform="translate(-491.438 -752.881)" fill="#d5dde4"/>
            <path id="Coat-Front" d="M456.158,871.791q-33.028,59.575-55.523,85.783l-22.64-4.434Q399.87,817.474,504.69,752.881h12.336q41.953,143.01,23.131,190.576H442.932C444.47,920.254,449.4,895.716,456.158,871.791Z" transform="translate(-342.703 -752.881)" fill="#e92d29"/>
          </g>
        </g>
      </g>
      <g id="Group_2825" data-name="Group 2825" transform="translate(199.98 333.858)">
        <g id="Group_2824" data-name="Group 2824" clip-path="url(#clip-path-2)">
          <g id="Group_2823" data-name="Group 2823" transform="translate(-74.034 -0.005)">
            <g id="Group_2822" data-name="Group 2822">
              <path id="Path_24728" data-name="Path 24728" d="M527.928,393.058c-130.073,19.266-194.435,128.828-202.7,206.126C315.131,693.567,358.938,743.434,440.7,736.96c88.651-7.02,190.6-16.632,300.639,0S933.7,768.815,974.118,667.654s-12.719-293.8-161.6-327.67C702.825,315.033,663.364,373,527.928,393.058Z" transform="translate(-249.76 -333.853)" fill="#b9e0f7"/>
              <g id="Group_2821" data-name="Group 2821" transform="translate(0 0.01)">
                <g id="Group_2820" data-name="Group 2820" clip-path="url(#clip-path)">
                  <g id="Group_2819" data-name="Group 2819" transform="translate(10.752 98.073)">
                    <g id="Group_2810" data-name="Group 2810" transform="translate(511.801 82.548)">
                      <g id="Group_2802" data-name="Group 2802" transform="translate(0 18.248)">
                        <path id="Path_24729" data-name="Path 24729" d="M1603.575,1091.678s-.75-68.856-24.027-88.714-86.8-109.65-37.839-133.379,65.9,58.41,98.364,85.556,8.153,132.852,8.153,132.852Z" transform="translate(-1523.181 -865.335)" fill="#80c3e5"/>
                        <g id="Group_2795" data-name="Group 2795" transform="translate(17.482 3.841)">
                          <path id="Path_24730" data-name="Path 24730" d="M1663.511,1111.092l-2.237-.176c.064-.818,6.216-82.284-9.458-118.4-7.251-16.707-21.3-32.566-36.184-49.355-17.935-20.24-36.48-41.168-46.5-66.748l2.091-.819c9.875,25.209,28.286,45.985,46.092,66.076,15,16.926,29.17,32.915,36.563,49.951C1669.772,1028.25,1663.576,1110.267,1663.511,1111.092Z" transform="translate(-1569.13 -875.599)" fill="#5aa2c8"/>
                        </g>
                        <g id="Group_2796" data-name="Group 2796" transform="translate(52.2 4.997)">
                          <path id="Path_24731" data-name="Path 24731" d="M1667.317,939.062c-2.14-5.483-2.337-17.354-2.547-29.924-.2-12.083-.43-25.779-2.857-29.13l1.82-1.318c2.842,3.926,3.057,16.79,3.283,30.411.2,11.818.4,24.037,2.394,29.146Z" transform="translate(-1661.912 -878.69)" fill="#5aa2c8"/>
                        </g>
                        <g id="Group_2797" data-name="Group 2797" transform="translate(0 42.37)">
                          <path id="Path_24732" data-name="Path 24732" d="M1591.1,1012.929c-1.809-2.065-12.866-6.343-24.572-10.873-23.77-9.2-42.112-16.714-44.117-22.792l2.131-.7c1.833,5.551,25.508,14.712,42.8,21.4,14.431,5.584,23.384,9.128,25.449,11.489Z" transform="translate(-1522.412 -978.563)" fill="#5aa2c8"/>
                        </g>
                        <g id="Group_2798" data-name="Group 2798" transform="translate(83.877 44.689)">
                          <path id="Path_24733" data-name="Path 24733" d="M1756,1047.706c-1.469-2.651-2.633-12.673-4.374-28.865-1.5-13.982-3.21-29.83-5.06-32.926l1.925-1.153c2.1,3.521,3.69,18.249,5.367,33.84,1.35,12.572,2.749,25.57,4.107,28.016Z" transform="translate(-1746.563 -984.762)" fill="#5aa2c8"/>
                        </g>
                        <g id="Group_2799" data-name="Group 2799" transform="translate(28.157 104.441)">
                          <path id="Path_24734" data-name="Path 24734" d="M1673.777,1172.721c-3.938-5.92-22.656-10.165-39.17-13.91-16.929-3.841-32.921-7.468-36.949-13.059l1.82-1.311c3.534,4.9,19.849,8.6,35.627,12.18,18.567,4.212,36.107,8.189,40.54,14.855Z" transform="translate(-1597.658 -1144.441)" fill="#5aa2c8"/>
                        </g>
                        <g id="Group_2800" data-name="Group 2800" transform="translate(68.888 157.884)">
                          <path id="Path_24735" data-name="Path 24735" d="M1747.3,1319.433c-1.938-13.131-18.569-20.241-30.711-25.433-4.26-1.82-7.937-3.394-10.086-4.9l1.289-1.837c1.956,1.37,5.534,2.9,9.678,4.67,11.919,5.1,29.929,12.8,32.053,27.17Z" transform="translate(-1706.508 -1287.264)" fill="#5aa2c8"/>
                        </g>
                        <g id="Group_2801" data-name="Group 2801" transform="translate(109.676 110.806)">
                          <path id="Path_24736" data-name="Path 24736" d="M1817.751,1218.587l-2.241-.106c.224-4.869,4.44-15.429,8.9-26.609,4.771-11.947,10.178-25.49,9.643-30.167l2.232-.255c.6,5.238-4.449,17.876-9.79,31.255C1822.3,1203.221,1817.959,1214.094,1817.751,1218.587Z" transform="translate(-1815.51 -1161.451)" fill="#5aa2c8"/>
                        </g>
                      </g>
                      <g id="Group_2809" data-name="Group 2809" transform="translate(101.199)">
                        <path id="Path_24737" data-name="Path 24737" d="M1792.854,1057.474c25.685-38.262-8.027-162.142,51.37-214.179s102.855-23.975,65.817,48.661-48.159,157.227-69.028,165.518S1792.854,1057.474,1792.854,1057.474Z" transform="translate(-1792.854 -816.569)" fill="#80c3e5"/>
                        <g id="Group_2803" data-name="Group 2803" transform="translate(19.763 0.61)">
                          <path id="Path_24738" data-name="Path 24738" d="M1847.882,1075.263l-2.214-.359c.1-.6,9.895-60.646,32.132-140.015,14.591-52.088,33.489-76.937,45.993-93.378,6.966-9.16,12-15.778,13.787-23.311l2.184.517c-1.9,8-7.049,14.773-14.183,24.152-12.4,16.306-31.143,40.948-45.618,92.624C1857.76,1014.742,1847.979,1074.667,1847.882,1075.263Z" transform="translate(-1845.668 -818.2)" fill="#5aa2c8"/>
                        </g>
                        <g id="Group_2804" data-name="Group 2804" transform="translate(62.621 40.731)">
                          <path id="Path_24739" data-name="Path 24739" d="M1961.986,971.328l-1.785-1.359c6.878-9.025,21.507-16.3,35.653-23.336,14.425-7.174,28.05-13.949,30.317-21.215l2.144.671c-2.554,8.178-16.6,15.162-31.461,22.555C1982.938,955.563,1968.549,962.72,1961.986,971.328Z" transform="translate(-1960.201 -925.418)" fill="#5aa2c8"/>
                        </g>
                        <g id="Group_2805" data-name="Group 2805" transform="translate(51.37 21.657)">
                          <path id="Path_24740" data-name="Path 24740" d="M1932.824,970.688l-2.166-.6c1.467-5.328.87-21.046.239-37.686-1.179-31.086-1.62-53.438,3.51-57.962l1.486,1.684c-4.729,4.168-3.633,33.015-2.754,56.192C1933.806,949.869,1934.381,965.024,1932.824,970.688Z" transform="translate(-1930.136 -874.444)" fill="#5aa2c8"/>
                        </g>
                        <g id="Group_2806" data-name="Group 2806" transform="translate(38.215 111.285)">
                          <path id="Path_24741" data-name="Path 24741" d="M1897.16,1172.844l-2.18-.544c2.339-9.391,16.435-19.63,31.36-30.47,13.142-9.549,26.732-19.42,30.284-27.863l2.069.873c-3.8,9.018-17.643,19.077-31.033,28.806C1913.718,1153.773,1899.3,1164.247,1897.16,1172.844Z" transform="translate(-1894.98 -1113.967)" fill="#5aa2c8"/>
                        </g>
                        <g id="Group_2807" data-name="Group 2807" transform="translate(15.52 100.972)">
                          <path id="Path_24742" data-name="Path 24742" d="M1855,1173.324l-2.188-.5c2.126-9.435-6.032-38.275-11.989-59.333-4.381-15.48-6.838-24.37-6.455-27.091l2.224.316c-.338,2.383,2.931,13.936,6.391,26.166C1849.343,1135.359,1857.256,1163.33,1855,1173.324Z" transform="translate(-1834.331 -1086.404)" fill="#5aa2c8"/>
                        </g>
                        <g id="Group_2808" data-name="Group 2808" transform="translate(24.95 193.881)">
                          <path id="Path_24743" data-name="Path 24743" d="M1861.737,1371.048l-2.206-.43c1.042-5.348,10.86-10.9,22.228-17.328,10.592-5.99,22.6-12.779,24.484-18.6l2.135.693c-2.157,6.648-14.032,13.364-25.515,19.856C1872.89,1360.883,1862.579,1366.715,1861.737,1371.048Z" transform="translate(-1859.531 -1334.695)" fill="#5aa2c8"/>
                        </g>
                      </g>
                    </g>
                    <g id="Group_2814" data-name="Group 2814">
                      <path id="Path_24744" data-name="Path 24744" d="M636.8,797.967s3.128-37.215,4.963-68.166,33.977-62.38,42.34-79.411,3.5-44.609,29.277-54.421c0,0-16.78,24.709-4.779,39.3s-8.831,59.46-13.138,79.076S671.668,785.284,636.8,797.967Z" transform="translate(-456.393 -595.969)" fill="#80c3e5"/>
                      <path id="Path_24745" data-name="Path 24745" d="M295.036,1007.818s-10.734-84.687-35.814-122.4-23.644-32.19-63.924-44.374-40.618,18.092-40.618,18.092,24.074-11.068,35.844,7.284,13.62,41.408,36.535,79.326S295.036,1007.818,295.036,1007.818Z" transform="translate(-154.68 -747.53)" fill="#80c3e5"/>
                      <path id="Path_24746" data-name="Path 24746" d="M352.623,597.351c5.643,30.814,66.776,52.094,78.38,85.335s-1.233,110.2-1.233,110.2-36.176-37.039-36.257-67-19.388-43.541-32.506-75.178S352.623,597.351,352.623,597.351Z" transform="translate(-278.033 -596.834)" fill="#80c3e5"/>
                      <g id="Group_2811" data-name="Group 2811" transform="translate(73.521 0.171)">
                        <path id="Path_24747" data-name="Path 24747" d="M434.23,934.3l-2.245-.044c.018-.857,1.563-86.371-3.73-141.843l-.414-4.368c-5.144-54.114-8.251-86.779-35.3-117.834-27.854-31.972-41.246-72.688-41.378-73.094l2.136-.693c.132.4,13.392,40.7,40.935,72.312,27.53,31.6,30.661,64.532,35.846,119.1l.417,4.365C435.793,847.8,434.245,933.442,434.23,934.3Z" transform="translate(-351.158 -596.426)" fill="#5aa2c8"/>
                      </g>
                      <g id="Group_2812" data-name="Group 2812" transform="translate(71.965 144.476)">
                        <path id="Path_24748" data-name="Path 24748" d="M429.611,1146.953c-.269-27.488-21.566-61.427-44.114-97.358-13.405-21.365-27.267-43.456-38.5-66.547l2.017-.982c11.18,22.98,25.011,45.02,38.385,66.334,22.719,36.208,44.18,70.41,44.456,98.531Z" transform="translate(-346.998 -982.066)" fill="#5aa2c8"/>
                      </g>
                      <g id="Group_2813" data-name="Group 2813" transform="translate(153.981 82.625)">
                        <path id="Path_24749" data-name="Path 24749" d="M566.227,994.649c-.91-23.473,11.066-39.668,22.649-55.331,7.363-9.954,14.975-20.248,19.159-32.307,10.676-30.762,21.814-89.643,21.926-90.234l2.206.415c-.112.593-11.278,59.637-22.009,90.556-4.3,12.381-12.013,22.816-19.477,32.906-11.875,16.058-23.09,31.224-22.208,53.909Z" transform="translate(-566.179 -816.776)" fill="#5aa2c8"/>
                      </g>
                    </g>
                    <g id="Group_2818" data-name="Group 2818" transform="translate(341.729 7.214)">
                      <g id="Group_2816" data-name="Group 2816" transform="translate(146.907)">
                        <path id="Path_24750" data-name="Path 24750" d="M1494.674,654.946c.378-1.741,4.7-10.841-.211-16.056s-7.54-12.978-10.576-15.088-2.556,7.7-2.556,7.7-10.949-14.11-14.734-15.919-1.807,4.361-1.807,4.361a4.267,4.267,0,0,0-3.5,2.695c-.862,2.47.364,7.838.364,7.838s-.173-1.711-1.065,2.127,6.009,21.013,9.6,24.412,13.223,6.321,14.9,7.706,33.381,61.969,41.823,67.253,20.934,6.678,24.968-10.449S1492.781,663.663,1494.674,654.946Z" transform="translate(-1460.506 -615.246)" fill="#ebafa4"/>
                        <g id="Group_2815" data-name="Group 2815" transform="translate(19.732 16)">
                          <path id="Path_24751" data-name="Path 24751" d="M1518.932,678.317c-.243-.118-5.906-2.969-5.3-9.012.079-.809.157-1.5.224-2.111.373-3.36.449-4.06-.614-8.689l2.188-.5c1.149,5,1.044,5.94.657,9.438-.067.6-.142,1.285-.223,2.086-.448,4.509,4.014,6.752,4.058,6.775Z" transform="translate(-1513.238 -658.004)" fill="#d28881"/>
                        </g>
                      </g>
                      <g id="Group_2817" data-name="Group 2817" transform="translate(0 11.508)">
                        <path id="Path_24752" data-name="Path 24752" d="M1258.556,737.454c0,3.623,9.687,4.272,10.176,8.775s-8.792,8.546-8.369,12.449,7.993,3.689,7.208,10.456-51.275,8.9-87.656,9.505-110.224-5.359-110.542-11.7,9.237-12.239,8.1-17.154-9.826-9.386-8.845-14.352,11.364-10.04,10.6-14.263-11.713-7.181-11.3-11.792,11.77-11.9,9-15.544-8.963-9.355-7.585-13.452,16.8-7.961,8.559-16.3-13.04-16.406-1.862-17.167c54.27-3.694,189.114,4.637,189.366,9.765s-7.833,11.792-4.376,15.669,8.886,6.326,9.44,11.429-5.385,6.355-7.461,9.617,9.242,9.033,9.242,13.461-9.26,7.5-10.468,8.579,7.649,7.525,8.052,11.148S1258.556,734.682,1258.556,737.454Z" transform="translate(-1067.913 -645.999)" fill="#e26461"/>
                      </g>
                      <path id="Path_24753" data-name="Path 24753" d="M1128.274,976.035c1.615-5.839,8.7-4.21,13.471-10.946s11.226-1.965,18.242-5.052,4.21,1.964,2.245,5.052-9.823,5.894-9.823,5.894,42.939-1.965,46.587,1.684-6.174,3.71-8.7,5.082-5.613,4.46-10.384,5.021-9.019,4.771-15.876,4.771-20.047-2.245-22.011-2.245-9.542,3.277-9.542,3.277A11.47,11.47,0,0,1,1128.274,976.035Z" transform="translate(-1105.385 -830.415)" fill="#ebafa4"/>
                      <path id="Path_24754" data-name="Path 24754" d="M1471.735,1024.448c9.012,1.066,17.415,4.444,26.272,6.208,5.143,1.025,10.108.768,15.3.794.786,0,1.67,0,2.592.03-1.445-6.806-5.917-13.3-11.856-15.31-13.433-4.542-64.565-44.345-69.336-51.081s-11.226-1.965-18.242-5.052-4.21,1.964-2.245,5.052,9.823,5.894,9.823,5.894-42.939-1.965-46.587,1.684,6.174,3.71,8.7,5.082,5.613,4.46,10.384,5.021,9.02,4.771,15.876,4.771,20.18-2.959,22.011-2.245c4.69,1.829,19.68,22.232,35.326,39.71A2.827,2.827,0,0,1,1471.735,1024.448Z" transform="translate(-1261.12 -830.415)" fill="#ebafa4"/>
                    </g>
                  </g>
                </g>
              </g>
            </g>
            <g id="humaaans_sitting-2" data-name="humaaans/sitting-2" transform="translate(458.626 76.057)">
              <g id="A-Human_Sitting" data-name="A-Human/Sitting">
                <g id="Head_Front_Rad" data-name="Head/Front/Rad" transform="translate(160.095)">
                  <g id="Head-2" data-name="Head" transform="translate(9.661 22.082)">
                    <path id="Path_24756" data-name="Path 24756" d="M1851.792,643.721c6.359-7.465,10.664-16.613,9.945-26.864-2.072-29.535-43.187-23.038-51.185-8.131s-7.047,52.72,3.289,55.384c4.122,1.062,12.9-1.54,21.841-6.927l-5.61,39.687H1863.2Z" transform="translate(-1805.23 -596.12)" fill="#ebafa4"/>
                  </g>
                  <path id="hair-2" data-name="hair" d="M1860.021,570.1a10.351,10.351,0,0,0,2.158-4.01,40.521,40.521,0,0,0,1.382-4.554c.7-3.1.7-6.674-1.512-9.085a10.419,10.419,0,0,0-6.9-2.988,12.687,12.687,0,0,0-4.892.62c-1.559.512-2.9,1.533-4.412,2.167a19.743,19.743,0,0,0-2.328-9.7,9.673,9.673,0,0,0-7.2-4.7,14.279,14.279,0,0,0-8.773,1.767c-.682.369-1.358.756-2.005,1.193a5.616,5.616,0,0,1-1.74.957c-.708.166-1.06-.243-1.52-.76a11.539,11.539,0,0,0-1.791-1.613,10.553,10.553,0,0,0-9.875-1.7,9.176,9.176,0,0,0-4.026,2.91c-.919,1.2-1.574,3.116-2.842,3.956-.538.356-.918-.116-1.408-.465-.736-.524-1.437-1.1-2.182-1.613a10,10,0,0,0-3.391-1.533c-1.776-.411-4.229-.314-4.737,2.011a9.592,9.592,0,0,0,.017,2.688c.085,1.208.172,2.417.278,3.623a26.152,26.152,0,0,0,.353,2.7,3.952,3.952,0,0,1,.175,1.854c-.257.6-1.443.259-1.95.28a7.708,7.708,0,0,0-2.931.645,3.154,3.154,0,0,0-1.774,1.641,2.949,2.949,0,0,0-.049,1.543,4.612,4.612,0,0,1-.094,1.583c-1.344-.662-6-2.133-6.588.276a3.767,3.767,0,0,0,.588,2.385,20.668,20.668,0,0,0,2.171,3.305,29.561,29.561,0,0,0,5.782,5.61,3.79,3.79,0,0,0-.989,6.348,4.7,4.7,0,0,0,3.449,1,7.612,7.612,0,0,1,1.426-.113,3.4,3.4,0,0,0,.646.217,19.224,19.224,0,0,0,5.289-.671,17.437,17.437,0,0,0,8.066-4.218,2.486,2.486,0,0,1,1.866-.857c.694.007,1.375.2,2.068.215,1.834.047,3.487-.85,5.19-1.447a19.582,19.582,0,0,0,1.7,6.9c.767,1.688,2.37,1.933,3.945,2.081,5.035.474,10.089-.055,15.13-.048-4.881,1.1-9.924,1.558-14.761,2.856-2.186.587-.517,2.06.418,3.082a17.76,17.76,0,0,1,3.478,5.963c2.388-3.112,6.608-5.163,10.347-4.207,4.131,1.056,7.04,6.643,4.4,10.659-1.534,2.331-4.3,3.232-6.608,4.233,1.8,1.869,2.233,4.63,3.315,6.955.534,1.147,1.283,2.443,2.476,2.843a2.894,2.894,0,0,1,1.308.521c.431.446.534.944,1.085,1.327a6.12,6.12,0,0,0,7.583-.584c1.762-1.8,1.3-4.66-.168-6.489,2.343-.977,6.612-2.233,5.681-5.883,5.077-.337,17.4-8.572,10.59-14.589,3.74-2.113,7.176-7.279,4.773-11.833-1.85-3.506-6.152-5.074-9.681-5.26" transform="translate(-1779.412 -537.108)" fill="#0b1337"/>
                </g>
                <g id="Bottom_Sitting_Skinny-Jeans-1" data-name="Bottom/Sitting/Skinny-Jeans-1" transform="translate(0 237.383)">
                  <g id="Objects_Seat_Cube" data-name="Objects/Seat/Cube" transform="translate(166.996 57.966)">
                    <g id="Seat">
                      <path id="Seat-Stuff" d="M1918.446,1326.4H1811.824l-13.971,171.136h158.715Z" transform="translate(-1797.853 -1326.395)" fill="#b8c4cc"/>
                      <path id="Seat-Stuff-2" data-name="Seat-Stuff" d="M2032.458,1326.4h-32.792l-19.627,171.136h90.542Z" transform="translate(-1911.866 -1326.395)" fill="rgba(4,5,5,0.1)"/>
                    </g>
                  </g>
                  <path id="Skin-2" data-name="Skin" d="M1459.456,1234.591c-11.368-6.826-30.441,1.944-30.427,11.707.039,29.21,26.7,166.876,28.088,175.578s16.3,11,17.17.028c1.382-17.46,3.948-77.9,1.38-105.877-1.06-11.548-2.2-22.545-3.325-32.357q20.982,37.891,64.9,108.5l15.894-7.262q-18.722-61.684-30.7-87.094c-13.677-29.006-26.5-53.846-31.9-62.6C1482.042,1221.457,1467.264,1226.259,1459.456,1234.591Z" transform="translate(-1400.045 -1205.944)" fill="#a57753"/>
                  <path id="LegLower" d="M1590.111,1359.1l-54.553-129.232c-13.069-21.023-49.71,4.278-45.254,16.471,10.118,27.682,61.578,117.3,64.593,125.548Z" transform="translate(-1438.158 -1202.971)" fill="#193b90"/>
                  <g id="Accessories_Shoe_Flat-Sneaker" data-name="Accessories/Shoe/Flat-Sneaker" transform="translate(94.045 170.186)">
                    <path id="shoe" d="M1663.837,1626.921q5.1,4.2,6.631,6.854a69.206,69.206,0,0,1,4.371,10.057l-67.413,38.921q-7.643-7.17-2.381-11.131t8.684-6.682L1637,1632.882a1.38,1.38,0,0,1,1.927-.306l.031.023,4.835,3.723q6.653-.58,9.93-2.472,2.662-1.537,6.112-6.4h0a2.76,2.76,0,0,1,3.849-.653C1663.733,1626.839,1663.786,1626.879,1663.837,1626.921Z" transform="translate(-1602.898 -1626.291)" fill="#dddede"/>
                  </g>
                  <g id="Accessories_Shoe_Flat-Sneaker-2" data-name="Accessories/Shoe/Flat-Sneaker" transform="translate(0 200.578)">
                    <path id="shoe-2" data-name="shoe" d="M1429.306,1715.887q2.316,6.183,2.316,9.253a69.253,69.253,0,0,1-1.244,10.9h-77.842q-3.034-10.032,3.5-10.831t10.861-1.444l36.18-16.13a1.381,1.381,0,0,1,1.823.7l.015.036,2.326,5.641q6.052,2.824,9.835,2.824,3.074,0,8.491-2.483h0a2.761,2.761,0,0,1,3.66,1.359Q1429.271,1715.795,1429.306,1715.887Z" transform="translate(-1351.574 -1707.51)" fill="#dddede"/>
                  </g>
                  <path id="Leg-and-Butt" d="M1418.81,1221.771c0,36.666,17.413,122.193,17.424,130.267l37.465.029q-8.225-114.473-5.833-115.706c2.392-1.233,98.06,9.552,126.752,9.552,41.374,0,58.49-26.091,59.879-74.424h-81.961c-16.688,1.786-103.734,19.343-136.062,25.379C1422.634,1199.451,1418.81,1211.67,1418.81,1221.771Z" transform="translate(-1393.651 -1171.488)" fill="#254b9b"/>
                </g>
                <g id="Body_Pointing-Forward" data-name="Body/Pointing-Forward" transform="translate(62.732 92.469)">
                  <path id="Sleeve" d="M1709.169,859.57c-22.879-3.134-52.819-11.83-82.8-36.638l-16.406,26.932c19.667,25.153,48.969,47.479,76.711,50.193C1708.533,902.2,1722.994,877.251,1709.169,859.57Z" transform="translate(-1576.004 -808.447)" fill="#8178b4"/>
                  <path id="Clothes" d="M1623.339,870.841q-26.72,6.664-89.615-15.717-15.6,32.274-14.423,46.019c35.97,18.789,66.8,27.166,92.2,27.719-.807,15.071,1.027,29.411,7.19,42.514,12.668,26.938,86.85,1.99,111.792,6.9,15.62-50.726-14.581-71.341-14.605-103.8-.026-35.545-28.567-90.256-32.766-90.256h-38.294C1642.7,811.368,1632.067,841.285,1623.339,870.841Z" transform="translate(-1519.218 -784.222)" fill="#a39bff"/>
                </g>
              </g>
            </g>
            <g id="humaaans_standing-9-2" data-name="humaaans/standing-9" transform="translate(43.496 31.16)">
              <g id="A-Human_Standing-2" data-name="A-Human/Standing">
                <g id="Head_Front_Airy-2" data-name="Head/Front/Airy">
                  <g id="Head-3" data-name="Head" transform="translate(173.636 53.643)">
                    <path id="Path_24757" data-name="Path 24757" d="M717.87,609.17c-6.505-7.635-10.907-16.993-10.172-27.478,2.12-30.21,44.174-23.565,52.354-8.317s7.208,53.924-3.364,56.65c-4.216,1.087-13.2-1.575-22.34-7.085l5.738,40.594h-33.88Z" transform="translate(-706.206 -560.482)" fill="#ebafa4"/>
                  </g>
                  <path id="hair-3" data-name="hair" d="M450.354,466.09c-4.465-.732-16.488-1.236-18.706-1.236-1.417,0-2.952.324-3.791-.977-.687-1.066-.436-2.867-.641-4.1-.238-1.436-.577-2.854-.919-4.268a43.4,43.4,0,0,0-4.506-11.447,35.186,35.186,0,0,0-16.678-15.1c-7.895-3.394-16.828-4.171-25.32-3.483-9.088.736-17.314,3.736-25.894,6.559a54.267,54.267,0,0,1-25.292,2.436c-8.616-1.324-15.126-5.993-22.394-10.425-7.44-4.538-15.942-7.505-24.737-6.823-8.21.637-15.777,4.027-22.566,8.555-6.352,4.237-11.593,9.334-14.552,16.509-3.183,7.717-3.18,16.189,2.054,23.009,7.587,9.886,21.672,12.443,33.391,12.189a63.8,63.8,0,0,0,19.834-3.635c8.534-3,15.909-8.089,23.894-12.218a62.174,62.174,0,0,1,11.679-4.674c3.94-1.113,7.82-1.623,11.386.757,3.773,2.518,7.154,4.991,11.471,6.567a37,37,0,0,0,12.939,2.323c8.584-.066,17.045-2.741,25.383-4.532,6.8-1.46,14.073-2.916,21-1.512,2.892.586,7.117,1.8,8.161,4.8-17.582,3.186-24.487,24.93-19.53,40.892,2.675,8.615,18.755,18.686,25.008,14.157,3.961-2.869,1.556-6.636,0-9.123-2.98-4.762-4-10.879,1.515-14.195,4.757-2.859,9.759,3.931,9.853,3.924,1.307-.1,12.6-6.492,20.388-15.815,7.679.455,8.843-4.608,7.01-8.749S456.524,467.1,450.354,466.09Z" transform="translate(-242.184 -417.126)" fill="#0b1337"/>
                </g>
                <g id="Bottom_Standing_Sprint" data-name="Bottom/Standing/Sprint" transform="translate(16.94 273.864)">
                  <path id="Leg" d="M633.185,1149c2.545,34.74,166.524,137.021,167.481,139.892q.638,1.913-51.04,120.954l14.334,5.57q79.266-126.073,75.194-139.507-5.829-19.233-127.229-126.54Z" transform="translate(-503.814 -1148.998)" fill="#a57753"/>
                  <path id="Pant" d="M750.591,1392.063l23.4,8.519c49.349-55.68,68.692-101.621,65.165-125.028q-3.527-23.407-126.79-126.329H628.7c2.855,80.454,154.843,140.113,156.876,143.541S767.6,1329.773,750.591,1392.063Z" transform="translate(-501.007 -1149.14)" fill="#172964"/>
                  <g id="Accessories_Shoe_Flat-Sneaker-3" data-name="Accessories/Shoe/Flat-Sneaker" transform="translate(232.459 257.121)">
                    <path id="shoe-3" data-name="shoe" d="M916.755,1837.114q-4.389,5.133-5.463,8.083a70.814,70.814,0,0,0-2.616,10.907l74.819,27.232q6.426-8.58.422-11.635t-9.935-5.188l-29.132-28.16a1.412,1.412,0,0,0-2,.034l-.027.029-4.209,4.609q-6.8.6-10.441-.727-2.955-1.076-7.293-5.357h0a2.824,2.824,0,0,0-3.993.026C916.844,1837.013,916.8,1837.063,916.755,1837.114Z" transform="translate(-908.676 -1836.126)" fill="#dddede"/>
                  </g>
                  <path id="Leg-2" data-name="Leg" d="M441.336,1149l-73.048,175.368-71.8,148.258h16.939L498.754,1149Z" transform="translate(-293.11 -1148.998)" fill="#886247"/>
                  <g id="Accessories_Shoe_Flat-Sneaker-4" data-name="Accessories/Shoe/Flat-Sneaker" transform="translate(0 308.213)">
                    <path id="shoe-4" data-name="shoe" d="M289.823,1981.232q-2.369,6.324-2.369,9.463a70.868,70.868,0,0,0,1.272,11.144h79.621q3.1-10.26-3.583-11.078t-11.11-1.477l-37.007-16.5a1.412,1.412,0,0,0-1.864.715l-.016.037-2.379,5.77q-6.19,2.888-10.06,2.888-3.144,0-8.685-2.54h0a2.824,2.824,0,0,0-3.743,1.39Q289.858,1981.137,289.823,1981.232Z" transform="translate(-287.454 -1972.663)" fill="#dddede"/>
                  </g>
                  <path id="Pant-2" data-name="Pant" d="M313.819,1441.825l37.638,7.059C380.559,1406.1,502.351,1230.666,515.7,1149H431.913C387.319,1208.036,341.559,1398.332,313.819,1441.825Z" transform="translate(-303.953 -1148.998)" fill="#3d519d"/>
                </g>
                <g id="Body_Jacket-2-2" data-name="Body/Jacket-2" transform="translate(15.528 125.639)">
                  <path id="Skin-3" data-name="Skin" d="M353.571,1062.229l28.928,5.74q-43.637,81.323-46.8,86.2c-4.75,7.319-.318,20.733,1.319,27.8-10.269,2.391-6.219-13.067-19.216-9.839-11.862,2.946-21.92,10.506-32.981.31-1.36-1.254-2.355-5.172,2.281-7.181,11.551-5.006,28.618-14.381,31.385-18.021Q324.143,1139.792,353.571,1062.229Z" transform="translate(-283.682 -946.472)" fill="#ebafa4"/>
                  <path id="Coat-Back-2" data-name="Coat-Back" d="M757.661,769.495l12.207-2.094c26.588,25.792,37.438,87.755,55.157,95.956,16.753,7.755,40.5.251,68.729-9.882L902.4,872.79c-25.648,27.748-80.288,51.19-102.436,37.807C764.552,889.2,756.378,812.779,757.661,769.495Z" transform="translate(-580.221 -761.968)" fill="#bfbf08"/>
                  <path id="Shirt-2" data-name="Shirt" d="M615.665,913.811H723.674c4.936,0,4.005-7.127,3.292-10.723-8.234-41.5-40.377-86.243-40.377-145.322l-31.155-4.886C629.665,794.326,620.754,845.352,615.665,913.811Z" transform="translate(-491.438 -752.881)" fill="#d5dde4"/>
                  <path id="Coat-Front-2" data-name="Coat-Front" d="M456.158,871.791q-33.028,59.575-55.523,85.783l-22.64-4.434Q399.87,817.474,504.69,752.881h12.336q41.953,143.01,23.131,190.576H442.932C444.47,920.254,449.4,895.716,456.158,871.791Z" transform="translate(-342.703 -752.881)" fill="#dad800"/>
                </g>
              </g>
            </g>
          </g>
        </g>
      </g>
    </g>
    <text id="_" data-name="₹" transform="translate(613 516)" fill="#fff" font-size="100" font-family="KohinoorDevanagari-Regular, Kohinoor Devanagari"><tspan x="0" y="0">₹</tspan></text>
    <text id="_2" data-name="₹" transform="translate(657 530)" fill="#fff" font-size="75" font-family="KohinoorDevanagari-Regular, Kohinoor Devanagari"><tspan x="0" y="0">₹</tspan></text>
    <text id="_3" data-name="₹" transform="translate(700 511)" fill="#fff" font-size="80" font-family="KohinoorDevanagari-Regular, Kohinoor Devanagari"><tspan x="0" y="0">₹</tspan></text>
  </g>
</svg>
